<svg xmlns="http://www.w3.org/2000/svg" viewBox="0 0 512 512"><rect width="512" height="512" rx="120" fill="#0b2132"/><circle cx="195" cy="185" r="74" fill="#ffd45a"/><g stroke="#ffd45a" stroke-width="22" stroke-linecap="round"><path d="M195 50v45M195 275v45M60 185h45M285 185h45M99 89l32 32M259 249l32 32M291 89l-32 32M131 249l-32 32"/></g><path d="M162 325h218c55 0 100-39 100-88s-45-88-100-88c-17 0-34 4-48 12-22-39-64-65-112-65-70 0-127 55-130 124-43 7-76 41-76 83 0 47 42 85 95 85h53" fill="#dff2ff" opacity=".98"/><path d="M143 386c-18 30-25 50-11 62 19 16 49-15 36-43-5-11-14-19-25-19zM251 386c-18 30-25 50-11 62 19 16 49-15 36-43-5-11-14-19-25-19z" fill="#62c7ff"/></svg>
