<svg xmlns="http://www.w3.org/2000/svg" viewBox="0 0 512 512">
  <rect width="512" height="512" rx="116" fill="#061621"/>
  <circle cx="196" cy="176" r="80" fill="#ffd05a"/>
  <g stroke="#ffd05a" stroke-width="22" stroke-linecap="round">
    <path d="M196 50v44M196 258v44M70 176h44M278 176h44M107 87l31 31M254 234l31 31M285 87l-31 31M138 234l-31 31"/>
  </g>
  <path d="M164 306h194a78 78 0 0 0-15-154 100 100 0 0 0-187 29 63 63 0 0 0 8 125Z" fill="#e9f4fb"/>
  <path d="M145 330h223" stroke="#a9bdcc" stroke-width="12" stroke-linecap="round" opacity=".45"/>
  <g fill="#6bb9ff"><path d="M203 362c-20 34-30 51-30 67a30 30 0 1 0 60 0c0-16-10-33-30-67Z"/><path d="M307 362c-20 34-30 51-30 67a30 30 0 1 0 60 0c0-16-10-33-30-67Z"/></g>
</svg>
